<?xml version="1.0" encoding="UTF-8"?>
<svg id="Layer_1" xmlns="http://www.w3.org/2000/svg" version="1.1" viewBox="0 0 14 15.94">
  <!-- Generator: Adobe Illustrator 30.2.1, SVG Export Plug-In . SVG Version: 2.1.1 Build 1)  -->
  <path d="M13.07,5.43c-1.06.65-1.71,1.8-1.72,3.04,0,1.4.85,2.67,2.14,3.22-.25.8-.62,1.57-1.09,2.26-.68.98-1.39,1.96-2.48,1.96s-1.36-.63-2.61-.63-1.65.65-2.64.65-1.68-.91-2.48-2.02c-1.05-1.56-1.63-3.4-1.66-5.28,0-3.1,2.01-4.74,4-4.74,1.05,0,1.93.69,2.59.69s1.61-.73,2.81-.73c1.25-.03,2.44.56,3.16,1.58ZM9.34,2.54c.53-.62.83-1.4.85-2.22,0-.11,0-.21-.03-.32-.91.09-1.75.52-2.34,1.21-.53.6-.84,1.36-.88,2.16,0,.1.01.19.03.29.07.01.14.02.22.02.84-.07,1.63-.48,2.16-1.14Z"/>
</svg>