<svg width="32" height="32" viewBox="0 0 32 32" fill="none" xmlns="http://www.w3.org/2000/svg">
<path opacity="0.6" d="M16.5 27.2539C15.0703 27.2539 13.7305 26.9844 12.4805 26.4453C11.2305 25.9141 10.1289 25.1758 9.17578 24.2305C8.23047 23.2773 7.48828 22.1758 6.94922 20.9258C6.41797 19.6758 6.15234 18.3359 6.15234 16.9062C6.15234 15.4766 6.41797 14.1367 6.94922 12.8867C7.48828 11.6367 8.23047 10.5391 9.17578 9.59375C10.1289 8.64062 11.2305 7.89844 12.4805 7.36719C13.7305 6.82812 15.0703 6.55859 16.5 6.55859C17.125 6.55859 17.7344 6.61328 18.3281 6.72266C18.9219 6.83203 19.4883 6.98828 20.0273 7.19141C20.1914 7.25391 20.3594 7.35156 20.5312 7.48438C20.7031 7.61719 20.7852 7.83203 20.7773 8.12891C20.7773 8.37109 20.707 8.57031 20.5664 8.72656C20.4336 8.875 20.2656 8.97266 20.0625 9.01953C19.8594 9.05859 19.6602 9.03906 19.4648 8.96094C18.9961 8.78906 18.5156 8.66016 18.0234 8.57422C17.5312 8.48047 17.0234 8.43359 16.5 8.43359C15.3359 8.43359 14.2422 8.65234 13.2188 9.08984C12.1953 9.52734 11.293 10.1367 10.5117 10.918C9.73828 11.6914 9.13281 12.5898 8.69531 13.6133C8.25781 14.6367 8.03906 15.7305 8.03906 16.8945C8.03906 18.0664 8.25781 19.1641 8.69531 20.1875C9.13281 21.2109 9.73828 22.1094 10.5117 22.8828C11.293 23.6562 12.1953 24.2617 13.2188 24.6992C14.2422 25.1367 15.3359 25.3555 16.5 25.3555C17.6719 25.3555 18.7695 25.1367 19.793 24.6992C20.8164 24.2617 21.7148 23.6562 22.4883 22.8828C23.2617 22.1094 23.8672 21.2109 24.3047 20.1875C24.7422 19.1641 24.9609 18.0664 24.9609 16.8945C24.9609 16.6367 25.0547 16.418 25.2422 16.2383C25.4297 16.0508 25.6523 15.957 25.9102 15.957C26.168 15.957 26.3867 16.0508 26.5664 16.2383C26.7539 16.418 26.8477 16.6367 26.8477 16.8945C26.8477 18.332 26.5781 19.6758 26.0391 20.9258C25.5078 22.1758 24.7656 23.2773 23.8125 24.2305C22.8672 25.1758 21.7695 25.9141 20.5195 26.4453C19.2695 26.9844 17.9297 27.2539 16.5 27.2539ZM19.6758 7.96484L15.4102 3.72266C15.3164 3.62891 15.25 3.52344 15.2109 3.40625C15.1719 3.28906 15.1523 3.16797 15.1523 3.04297C15.1523 2.77734 15.2383 2.55078 15.4102 2.36328C15.5898 2.17578 15.8086 2.08203 16.0664 2.08203C16.332 2.08203 16.5625 2.17969 16.7578 2.375L21.5742 7.27344C21.7773 7.46875 21.8789 7.70313 21.8789 7.97656C21.8789 8.10938 21.8555 8.23438 21.8086 8.35156C21.7617 8.46875 21.6836 8.57812 21.5742 8.67969L16.7461 13.5312C16.5586 13.7109 16.332 13.8008 16.0664 13.8008C15.8086 13.8008 15.5898 13.7109 15.4102 13.5312C15.2383 13.3516 15.1523 13.125 15.1523 12.8516C15.1523 12.7344 15.1719 12.6172 15.2109 12.5C15.25 12.3828 15.3203 12.2812 15.4219 12.1953L19.6758 7.96484Z" fill="black"/>
</svg>
