<svg width="32" height="32" viewBox="0 0 32 32" fill="none" xmlns="http://www.w3.org/2000/svg">
<path opacity="0.6" d="M14.0195 24.9219C13.7383 24.9219 13.4844 24.8125 13.2578 24.5938L5.47656 16.8242C5.23438 16.5977 5.11328 16.3359 5.11328 16.0391C5.11328 15.7422 5.23438 15.4805 5.47656 15.2539L13.2344 7.50781C13.3594 7.38281 13.4844 7.29297 13.6094 7.23828C13.7422 7.18359 13.8789 7.15625 14.0195 7.15625C14.3086 7.15625 14.5508 7.25391 14.7461 7.44922C14.9492 7.63672 15.0508 7.875 15.0508 8.16406C15.0508 8.30469 15.0234 8.44141 14.9688 8.57422C14.9219 8.69922 14.8516 8.80859 14.7578 8.90234L12.1328 11.5742L7.24609 16.0391L12.1328 20.5039L14.7578 23.1758C14.8516 23.2695 14.9219 23.3828 14.9688 23.5156C15.0234 23.6406 15.0508 23.7734 15.0508 23.9141C15.0508 24.2031 14.9492 24.4414 14.7461 24.6289C14.5508 24.8242 14.3086 24.9219 14.0195 24.9219ZM11.0195 17.082L7.24609 16.8477C7.01172 16.8477 6.81641 16.7734 6.66016 16.625C6.51172 16.4688 6.4375 16.2734 6.4375 16.0391C6.4375 15.7969 6.51172 15.6016 6.66016 15.4531C6.81641 15.3047 7.01172 15.2305 7.24609 15.2305L11.0195 14.9961H25.8438C26.1484 14.9961 26.3945 15.0938 26.582 15.2891C26.7773 15.4844 26.875 15.7344 26.875 16.0391C26.875 16.3438 26.7773 16.5938 26.582 16.7891C26.3945 16.9844 26.1484 17.082 25.8438 17.082H11.0195Z" fill="black"/>
</svg>
