<svg width="32" height="32" viewBox="0 0 32 32" fill="none" xmlns="http://www.w3.org/2000/svg">
<path opacity="0.6" d="M17.9688 24.9219C17.6797 24.9219 17.4375 24.8242 17.2422 24.6289C17.0469 24.4414 16.9492 24.2031 16.9492 23.9141C16.9492 23.7734 16.9727 23.6406 17.0195 23.5156C17.0664 23.3828 17.1367 23.2695 17.2305 23.1758L19.8555 20.5039L24.7422 16.0391L19.8555 11.5742L17.2305 8.90234C17.1367 8.80859 17.0664 8.69922 17.0195 8.57422C16.9727 8.44141 16.9492 8.30469 16.9492 8.16406C16.9492 7.875 17.0469 7.63672 17.2422 7.44922C17.4375 7.25391 17.6797 7.15625 17.9688 7.15625C18.1094 7.15625 18.2422 7.18359 18.3672 7.23828C18.5 7.29297 18.6289 7.38281 18.7539 7.50781L26.5234 15.2539C26.7578 15.4805 26.875 15.7422 26.875 16.0391C26.875 16.3359 26.7578 16.5977 26.5234 16.8242L18.7305 24.5938C18.5039 24.8125 18.25 24.9219 17.9688 24.9219ZM6.14453 17.082C5.83984 17.082 5.58984 16.9844 5.39453 16.7891C5.20703 16.5938 5.11328 16.3438 5.11328 16.0391C5.11328 15.7344 5.20703 15.4844 5.39453 15.2891C5.58984 15.0938 5.83984 14.9961 6.14453 14.9961H20.9688L24.7422 15.2305C24.9844 15.2461 25.1797 15.3242 25.3281 15.4648C25.4766 15.6055 25.5508 15.7969 25.5508 16.0391C25.5508 16.2734 25.4766 16.4609 25.3281 16.6016C25.1797 16.7422 24.9844 16.8242 24.7422 16.8477L20.9688 17.082H6.14453Z" fill="black"/>
</svg>
