<svg width="32" height="32" viewBox="0 0 32 32" fill="none" xmlns="http://www.w3.org/2000/svg">
<path opacity="0.6" d="M14.0391 26.3867C13.5781 26.3867 13.1719 26.1602 12.8203 25.707L6.73828 17.9609C6.62109 17.8203 6.53516 17.6797 6.48047 17.5391C6.42578 17.3906 6.39844 17.2461 6.39844 17.1055C6.39844 16.7852 6.50391 16.5234 6.71484 16.3203C6.92578 16.1094 7.19531 16.0039 7.52344 16.0039C7.91406 16.0039 8.25 16.1953 8.53125 16.5781L13.9922 23.7266L24.5156 6.95703C24.6562 6.73828 24.8008 6.58594 24.9492 6.5C25.0977 6.40625 25.2891 6.35938 25.5234 6.35938C25.8438 6.35938 26.1016 6.45703 26.2969 6.65234C26.4922 6.84766 26.5898 7.10547 26.5898 7.42578C26.5898 7.56641 26.5664 7.70703 26.5195 7.84766C26.4727 7.98047 26.3984 8.12891 26.2969 8.29297L15.2227 25.7305C14.9336 26.168 14.5391 26.3867 14.0391 26.3867Z" fill="#065839"/>
</svg>
