<svg width="32" height="32" viewBox="0 0 32 32" fill="none" xmlns="http://www.w3.org/2000/svg">
<path opacity="0.6" d="M24 7.07422C24.1406 6.93359 24.2969 6.84375 24.4688 6.80469C24.6484 6.75781 24.8281 6.75781 25.0078 6.80469C25.1875 6.84375 25.3477 6.93359 25.4883 7.07422C25.6211 7.20703 25.7109 7.36328 25.7578 7.54297C25.8047 7.72266 25.8047 7.90234 25.7578 8.08203C25.7109 8.26172 25.6211 8.41797 25.4883 8.55078L9 25.0391C8.86719 25.1719 8.71094 25.2617 8.53125 25.3086C8.35156 25.3555 8.17188 25.3555 7.99219 25.3086C7.8125 25.2617 7.65234 25.1719 7.51172 25.0391C7.37109 24.9062 7.27734 24.75 7.23047 24.5703C7.19141 24.3906 7.19531 24.2109 7.24219 24.0312C7.28906 23.8516 7.37891 23.6953 7.51172 23.5625L24 7.07422ZM25.4883 23.5625C25.6211 23.6953 25.707 23.8516 25.7461 24.0312C25.793 24.2109 25.793 24.3906 25.7461 24.5703C25.707 24.75 25.6211 24.9062 25.4883 25.0391C25.3555 25.1797 25.1953 25.2695 25.0078 25.3086C24.8281 25.3555 24.6484 25.3555 24.4688 25.3086C24.2891 25.2617 24.1328 25.1719 24 25.0391L7.51172 8.55078C7.37891 8.41797 7.28906 8.26172 7.24219 8.08203C7.20312 7.90234 7.20312 7.72266 7.24219 7.54297C7.28906 7.36328 7.37891 7.20703 7.51172 7.07422C7.64453 6.93359 7.80078 6.84375 7.98047 6.80469C8.16016 6.75781 8.33984 6.75781 8.51953 6.80469C8.70703 6.84375 8.86719 6.93359 9 7.07422L25.4883 23.5625Z" fill="white"/>
</svg>
