<svg width="32" height="32" viewBox="0 0 32 32" fill="none" xmlns="http://www.w3.org/2000/svg">
<path opacity="0.6" d="M7.79297 18.2539C7.37891 18.2539 7.00391 18.1562 6.66797 17.9609C6.33203 17.7578 6.0625 17.4883 5.85938 17.1523C5.66406 16.8164 5.56641 16.4453 5.56641 16.0391C5.56641 15.625 5.66406 15.25 5.85938 14.9141C6.0625 14.5781 6.33203 14.3125 6.66797 14.1172C7.00391 13.9141 7.37891 13.8125 7.79297 13.8125C8.19922 13.8125 8.57031 13.9141 8.90625 14.1172C9.24219 14.3125 9.50781 14.5781 9.70312 14.9141C9.90625 15.25 10.0078 15.625 10.0078 16.0391C10.0078 16.4453 9.90625 16.8164 9.70312 17.1523C9.50781 17.4883 9.24219 17.7578 8.90625 17.9609C8.57031 18.1562 8.19922 18.2539 7.79297 18.2539ZM16.5 18.2539C16.0859 18.2539 15.7109 18.1562 15.375 17.9609C15.0391 17.7578 14.7695 17.4883 14.5664 17.1523C14.3711 16.8164 14.2734 16.4453 14.2734 16.0391C14.2734 15.625 14.3711 15.25 14.5664 14.9141C14.7695 14.5781 15.0391 14.3125 15.375 14.1172C15.7109 13.9141 16.0859 13.8125 16.5 13.8125C16.9062 13.8125 17.2773 13.9141 17.6133 14.1172C17.9492 14.3125 18.2148 14.5781 18.4102 14.9141C18.6133 15.25 18.7148 15.625 18.7148 16.0391C18.7148 16.4453 18.6133 16.8164 18.4102 17.1523C18.2148 17.4883 17.9492 17.7578 17.6133 17.9609C17.2773 18.1562 16.9062 18.2539 16.5 18.2539ZM25.207 18.2539C24.793 18.2539 24.418 18.1562 24.082 17.9609C23.7461 17.7578 23.4766 17.4883 23.2734 17.1523C23.0781 16.8164 22.9805 16.4453 22.9805 16.0391C22.9805 15.625 23.0781 15.25 23.2734 14.9141C23.4766 14.5781 23.7461 14.3125 24.082 14.1172C24.418 13.9141 24.793 13.8125 25.207 13.8125C25.6133 13.8125 25.9844 13.9141 26.3203 14.1172C26.6562 14.3125 26.9258 14.5781 27.1289 14.9141C27.332 15.25 27.4336 15.625 27.4336 16.0391C27.4336 16.4453 27.332 16.8164 27.1289 17.1523C26.9258 17.4883 26.6562 17.7578 26.3203 17.9609C25.9844 18.1562 25.6133 18.2539 25.207 18.2539Z" fill="black"/>
</svg>
