<svg width="32" height="32" viewBox="0 0 32 32" fill="none" xmlns="http://www.w3.org/2000/svg">
<path opacity="0.6" d="M6.41016 14.3398C6.09766 14.3398 5.83984 14.2344 5.63672 14.0234C5.43359 13.8125 5.33203 13.5547 5.33203 13.25V6.74609C5.33203 6.15234 5.49609 5.69141 5.82422 5.36328C6.16016 5.02734 6.625 4.85938 7.21875 4.85938H13.7227C14.043 4.85938 14.3047 4.96094 14.5078 5.16406C14.7188 5.36719 14.8242 5.625 14.8242 5.9375C14.8242 6.25 14.7188 6.50781 14.5078 6.71094C14.2969 6.90625 14.0352 7.00391 13.7227 7.00391H12.75L8.64844 6.76953L11.8945 9.85156L15.5156 13.4609C15.6172 13.5625 15.6953 13.6836 15.75 13.8242C15.8047 13.9648 15.832 14.1133 15.832 14.2695C15.832 14.5977 15.7227 14.8633 15.5039 15.0664C15.2852 15.2617 15.0078 15.3594 14.6719 15.3594C14.375 15.3594 14.1289 15.2578 13.9336 15.0547L10.3242 11.4219L7.24219 8.17578L7.47656 12.2656V13.25C7.47656 13.5625 7.375 13.8242 7.17188 14.0352C6.97656 14.2383 6.72266 14.3398 6.41016 14.3398ZM19.2656 27.2188C18.9531 27.2188 18.6914 27.1172 18.4805 26.9141C18.2695 26.7109 18.1641 26.4531 18.1641 26.1406C18.1641 25.8281 18.2695 25.5703 18.4805 25.3672C18.6914 25.1719 18.9531 25.0742 19.2656 25.0742H20.25L24.3516 25.3086L21.0938 22.2266L17.4844 18.6172C17.375 18.5156 17.293 18.3945 17.2383 18.2539C17.1836 18.1133 17.1562 17.9648 17.1562 17.8086C17.1562 17.4805 17.2656 17.2188 17.4844 17.0234C17.7109 16.8203 17.9883 16.7188 18.3164 16.7188C18.6211 16.7188 18.8711 16.8203 19.0664 17.0234L22.6641 20.6562L25.7578 23.9023L25.5117 19.8125V18.8281C25.5117 18.5156 25.6133 18.2578 25.8164 18.0547C26.0195 17.8438 26.2734 17.7383 26.5781 17.7383C26.8906 17.7383 27.1484 17.8438 27.3516 18.0547C27.5625 18.2656 27.668 18.5234 27.668 18.8281V25.332C27.668 25.9258 27.5 26.3867 27.1641 26.7148C26.8359 27.0508 26.3711 27.2188 25.7695 27.2188H19.2656Z" fill="white"/>
</svg>
