<svg width="32" height="32" viewBox="0 0 32 32" fill="none" xmlns="http://www.w3.org/2000/svg">
<path opacity="0.6" d="M7.375 17.1055C7.1875 17.1055 7.01562 17.0586 6.85938 16.9648C6.70312 16.8711 6.57422 16.7461 6.47266 16.5898C6.37891 16.4258 6.33203 16.2461 6.33203 16.0508C6.33203 15.8633 6.37891 15.6914 6.47266 15.5352C6.57422 15.3711 6.70312 15.2422 6.85938 15.1484C7.01562 15.0547 7.1875 15.0078 7.375 15.0078H24.625C24.8125 15.0078 24.9844 15.0547 25.1406 15.1484C25.3047 15.2422 25.4336 15.3711 25.5273 15.5352C25.6211 15.6914 25.668 15.8633 25.668 16.0508C25.668 16.2461 25.6211 16.4258 25.5273 16.5898C25.4336 16.7461 25.3047 16.8711 25.1406 16.9648C24.9844 17.0586 24.8125 17.1055 24.625 17.1055H7.375Z" fill="white"/>
</svg>
