<svg width="22" height="20" viewBox="0 0 22 20" fill="none" xmlns="http://www.w3.org/2000/svg">
<path d="M9.00204 1.70193V7.47395L3.56592 5.4422L2.26703 8.99779L7.84746 10.7986L4.28757 15.324L7.51068 17.5866L10.8782 12.8304L14.4381 17.5866L17.6132 15.324L14.0532 10.7986L19.7299 8.99779L18.431 5.4422L12.8506 7.47395V1.70193H9.00204ZM14.6231 5.0084L19.5021 3.23211L22 10.0701L16.9594 11.6691L20.1049 15.6677L14.0492 19.9833L10.9185 15.8006L7.94529 20L1.788 15.6776L4.94931 11.6589L0 10.0617L2.50021 3.21759L7.22949 4.98513V0H14.6231V5.0084Z" fill="#EF340B"/>
</svg>
