<svg width="105" height="79" viewBox="0 0 105 79" fill="none" xmlns="http://www.w3.org/2000/svg">
<path d="M39.2552 16.7989C67.3052 -0.994057 95.9747 -5.34369 103.289 7.08308C106.296 12.1912 105.224 19.3376 100.973 27.2208C103.264 21.6021 103.525 16.5853 101.304 12.8116C94.6676 1.53714 68.4167 5.63677 42.6712 21.9678C16.9257 38.299 1.43439 60.6776 8.07062 71.9522C10.6412 76.3194 16.1546 78.3781 23.4417 78.3145C13.0714 79.4276 5.09999 77.2738 1.71125 71.5167C-5.60322 59.0899 11.2054 34.5918 39.2552 16.7989Z" fill="#3535FF"/>
<path d="M50.8342 2.00037C60.2258 2.00041 67.6401 3.53345 73.0774 6.59998C78.5147 9.6666 82.655 14.1109 85.4973 19.933C88.3396 25.7551 89.761 33.3332 89.761 42.6664V45.7338H39.3411C39.7942 50.0888 40.8857 53.3329 42.6155 55.4662C45.0458 58.5328 48.2179 60.0667 52.1311 60.0668C54.6026 60.0668 56.9507 59.4 59.175 58.0668C60.5344 57.2224 61.9965 55.7332 63.5618 53.6L88.3391 56.0668C84.5494 63.1778 79.9773 68.2887 74.6223 71.3998C69.2673 74.4664 61.5851 76.0003 51.5754 76.0004C42.884 76.0004 36.046 74.6889 31.0618 72.0668C26.0775 69.4001 21.9372 65.1995 18.6418 59.4662C15.3878 53.6885 13.761 46.9108 13.761 39.1332C13.761 38.9287 13.7636 38.7249 13.7659 38.5219C18.6095 33.21 25.0412 26.7236 30.0002 23.0004C26.5432 24.4603 19.4646 27.961 14.2454 32.0756C15.3765 24.1948 18.4896 17.592 23.5852 12.267C30.176 5.42252 39.2592 2.00037 50.8342 2.00037ZM51.884 18.0668C47.8885 18.0668 44.696 19.7776 42.3069 23.1996C40.7828 25.3329 39.8145 28.5115 39.4026 32.7338H64.1799C63.6856 27.4893 62.3678 23.7329 60.2258 21.4662C58.125 19.1996 55.3441 18.0668 51.884 18.0668Z" fill="#3535FF"/>
</svg>
