<svg width="311" height="82" viewBox="0 0 311 82" fill="none" xmlns="http://www.w3.org/2000/svg">
<g filter="url(#filter0_nf_48_57)">
<path d="M308.065 61.4722H299.289C299.126 60.5571 298.799 59.9361 298.309 59.6092C297.818 59.2824 297.001 59.119 295.857 59.119C294.093 59.119 293.21 59.6256 293.21 60.6388C293.21 60.9983 293.341 61.3251 293.602 61.6193C293.896 61.8807 294.321 62.1095 294.877 62.3056C295.433 62.469 295.906 62.5998 296.299 62.6978C296.691 62.7632 297.197 62.8449 297.818 62.9429C298.439 63.0083 298.766 63.041 298.799 63.041C299.975 63.2698 300.94 63.4822 301.691 63.6783C302.476 63.8417 303.358 64.1359 304.339 64.5608C305.319 64.9856 306.104 65.4595 306.692 65.9825C307.28 66.5054 307.77 67.2081 308.163 68.0905C308.588 68.973 308.8 69.9862 308.8 71.1301C308.8 73.9082 307.672 76.0816 305.417 77.6504C303.162 79.2192 300.041 80.0036 296.054 80.0036C287.981 80.0036 283.699 76.9804 283.209 70.934H292.377C292.507 71.9799 292.867 72.7479 293.455 73.2382C294.076 73.6957 295.008 73.9245 296.25 73.9245C297.197 73.9245 297.933 73.7447 298.456 73.3852C299.011 73.0257 299.289 72.5355 299.289 71.9145C299.289 71.2935 299.028 70.8523 298.505 70.5908C297.982 70.3293 296.985 70.0352 295.514 69.7084C295.024 69.6103 294.632 69.5286 294.338 69.4632C291.004 68.7442 288.781 68.1069 287.67 67.5513C285.056 66.2766 283.748 64.2012 283.748 61.3251C283.748 58.7431 284.794 56.7658 286.886 55.3931C289.01 54.0204 292.066 53.3341 296.054 53.3341C299.485 53.3341 302.28 53.9387 304.437 55.148C306.594 56.3246 307.803 58.4327 308.065 61.4722Z" fill="black"/>
<path d="M264.608 54.0694V57.207C266.667 54.6577 269.347 53.3831 272.648 53.3831C275.851 53.3831 278.171 54.2982 279.61 56.1285C281.048 57.9587 281.767 60.3773 281.767 63.3841V79.3663H272.011V65.1981C272.011 62.518 270.916 61.178 268.726 61.178C266.242 61.178 265 62.5997 265 65.4432V79.3663H255.293V54.0694H264.608Z" fill="black"/>
<path d="M239.709 53.3341C243.794 53.3341 247.111 54.5597 249.661 57.0109C252.21 59.4622 253.485 62.6651 253.485 66.6198C253.485 70.6072 252.194 73.8591 249.612 76.3757C247.03 78.8597 243.696 80.1016 239.611 80.1016C235.492 80.1016 232.142 78.8597 229.56 76.3757C226.978 73.8918 225.688 70.6725 225.688 66.7178C225.688 62.7632 226.978 59.5439 229.56 57.06C232.175 54.576 235.558 53.3341 239.709 53.3341ZM239.513 60.3446C236.767 60.3446 235.394 62.469 235.394 66.7178C235.394 70.9994 236.8 73.1401 239.611 73.1401C242.389 73.1401 243.778 70.9667 243.778 66.6198C243.778 62.4363 242.356 60.3446 239.513 60.3446Z" fill="black"/>
<path d="M223.706 44.4606V51.226H213.999V44.4606H223.706ZM223.706 54.0694V79.3663H213.999V54.0694H223.706Z" fill="black"/>
<path d="M213.056 54.0694V60.0995H207.81V69.12C207.81 70.4927 207.99 71.4242 208.349 71.9145C208.742 72.372 209.64 72.6008 211.046 72.6008C211.961 72.6008 212.631 72.5681 213.056 72.5028V79.5133C211.095 79.6441 209.395 79.7094 207.957 79.7094C204.395 79.7094 201.862 79.0884 200.358 77.8465C198.888 76.6045 198.152 74.4638 198.152 71.4242V60.0995H193.985V54.0694H198.152V46.2745H207.81V54.0694H213.056Z" fill="black"/>
<path d="M193.425 54.0694V79.3662H184.012V76.1306C182.345 78.7779 179.763 80.1016 176.266 80.1016C170.121 80.1016 167.049 76.6372 167.049 69.7083V54.0694H176.854V68.6298C176.854 70.9176 177.949 72.0615 180.139 72.0615C181.61 72.0615 182.574 71.604 183.031 70.6888C183.489 69.7737 183.718 68.5154 183.718 66.9139V54.0694H193.425Z" fill="black"/>
<path d="M163.842 44.4606V79.3663H154.135V44.4606H163.842Z" fill="black"/>
<path d="M138.403 53.3341C142.489 53.3341 145.806 54.5597 148.355 57.0109C150.905 59.4622 152.179 62.6651 152.179 66.6198C152.179 70.6072 150.888 73.8591 148.306 76.3757C145.724 78.8597 142.391 80.1016 138.305 80.1016C134.187 80.1016 130.837 78.8597 128.255 76.3757C125.673 73.8918 124.382 70.6725 124.382 66.7178C124.382 62.7632 125.673 59.5439 128.255 57.06C130.87 54.576 134.253 53.3341 138.403 53.3341ZM138.207 60.3446C135.462 60.3446 134.089 62.469 134.089 66.7178C134.089 70.9994 135.495 73.1401 138.305 73.1401C141.083 73.1401 142.472 70.9667 142.472 66.6198C142.472 62.4363 141.051 60.3446 138.207 60.3446Z" fill="black"/>
<path d="M122.863 55.0499H112.813C112.78 54.0041 112.372 53.187 111.587 52.5987C110.803 52.0104 109.724 51.7162 108.352 51.7162C105.998 51.7162 104.822 52.4353 104.822 53.8733C104.822 54.2655 105.018 54.6414 105.41 55.0009C105.802 55.3604 106.342 55.6709 107.028 55.9324C107.747 56.1612 108.401 56.3572 108.989 56.5207C109.577 56.6841 110.231 56.8475 110.95 57.0109C111.702 57.1416 112.143 57.2234 112.274 57.256C113.646 57.6156 114.823 57.9587 115.803 58.2856C116.784 58.6124 117.846 59.0863 118.99 59.7073C120.134 60.2956 121.049 60.9656 121.735 61.7173C122.454 62.4363 123.059 63.3678 123.549 64.5117C124.04 65.6229 124.285 66.8813 124.285 68.2866C124.285 71.9145 122.912 74.8069 120.167 76.964C117.421 79.0884 113.712 80.1507 109.038 80.1507C104.168 80.1507 100.328 79.0394 97.5171 76.817C94.7063 74.5618 93.2682 71.4896 93.2029 67.6003H103.939C104.103 70.6071 105.917 72.1106 109.381 72.1106C110.721 72.1106 111.783 71.8491 112.568 71.3262C113.352 70.8032 113.744 70.1006 113.744 69.2181C113.744 68.6625 113.516 68.1886 113.058 67.7964C112.633 67.4369 111.816 67.0447 110.607 66.6198C109.397 66.1949 107.959 65.7537 106.293 65.2961C104.658 64.8059 103.629 64.479 103.204 64.3156C101.799 63.8254 100.638 63.3515 99.7232 62.8939C98.8081 62.4363 97.9256 61.848 97.0758 61.129C96.2261 60.3773 95.5888 59.4785 95.1639 58.4326C94.7717 57.3541 94.5756 56.0958 94.5756 54.6577C94.5756 51.3894 95.8666 48.7584 98.4485 46.7647C101.063 44.7384 104.479 43.7252 108.695 43.7252C113.14 43.7252 116.588 44.722 119.039 46.7157C121.523 48.6767 122.798 51.4548 122.863 55.0499Z" fill="black"/>
<path d="M154.985 1.8H177.194V4.64345H158.319V17.2919H175.086V20.1353H158.319V36.8038H154.985V1.8Z" fill="black"/>
<path d="M124.999 1.8H152.698V4.64345H140.49V36.8038H137.157V4.64345H124.999V1.8Z" fill="black"/>
<path d="M95.8013 1.8H99.135V23.469C99.135 25.4954 99.3637 27.2276 99.8213 28.6656C100.279 30.071 100.949 31.2313 101.831 32.1464C102.714 33.0288 103.792 33.6825 105.067 34.1074C106.342 34.4996 107.78 34.6957 109.381 34.6957C111.015 34.6957 112.47 34.4996 113.744 34.1074C115.019 33.6825 116.098 33.0288 116.98 32.1464C117.862 31.2313 118.532 30.071 118.99 28.6656C119.448 27.2276 119.676 25.4954 119.676 23.469V1.8H123.01V24.2044C123.01 26.0019 122.749 27.7178 122.226 29.352C121.735 30.9535 120.935 32.3588 119.823 33.5681C118.745 34.7774 117.34 35.7416 115.607 36.4606C113.908 37.1469 111.832 37.4901 109.381 37.4901C106.963 37.4901 104.887 37.1469 103.155 36.4606C101.455 35.7416 100.05 34.7774 98.9389 33.5681C97.8603 32.3588 97.0596 30.9535 96.5366 29.352C96.0464 27.7178 95.8013 26.0019 95.8013 24.2044V1.8Z" fill="black"/>
<path d="M31.7969 12.9598V33.3652L13.6825 26.1825L9.35434 38.7523L27.9496 45.1187L16.0872 61.1166L26.8274 69.1156L38.0487 52.3016L49.9111 69.1156L60.4913 61.1166L48.6287 45.1187L67.5446 38.7523L63.2164 26.1825L44.6211 33.3652V12.9598H31.7969ZM50.5277 24.649L66.7854 18.3694L75.1092 42.543L58.3127 48.196L68.7944 62.3318L48.6152 77.5883L38.1831 62.8019L28.2756 77.6475L7.75807 62.3669L18.2923 48.1599L1.80005 42.5134L10.1313 18.318L25.8904 24.5667V6.94316H50.5277V24.649Z" fill="black"/>
</g>
<defs>
<filter id="filter0_nf_48_57" x="4.88758e-05" y="3.09944e-06" width="310.6" height="81.9506" filterUnits="userSpaceOnUse" color-interpolation-filters="sRGB">
<feFlood flood-opacity="0" result="BackgroundImageFix"/>
<feBlend mode="normal" in="SourceGraphic" in2="BackgroundImageFix" result="shape"/>
<feTurbulence type="fractalNoise" baseFrequency="0.55555558204650879 0.55555558204650879" stitchTiles="stitch" numOctaves="3" result="noise" seed="6" />
<feColorMatrix in="noise" type="luminanceToAlpha" result="alphaNoise" />
<feComponentTransfer in="alphaNoise" result="coloredNoise1">
<feFuncA type="discrete" tableValues="0 0 0 0 0 0 1 1 1 1 1 1 1 1 1 1 1 1 1 1 1 1 1 1 1 1 1 1 1 1 1 1 1 1 1 1 1 1 1 1 1 1 1 1 1 0 0 0 0 0 0 0 0 0 0 0 0 0 0 0 0 0 0 0 0 0 0 0 0 0 0 0 0 0 0 0 0 0 0 0 0 0 0 0 0 0 0 0 0 0 0 0 0 0 0 0 0 0 0 0 "/>
</feComponentTransfer>
<feComposite operator="in" in2="shape" in="coloredNoise1" result="noise1Clipped" />
<feFlood flood-color="#FFFFFF" result="color1Flood" />
<feComposite operator="in" in2="noise1Clipped" in="color1Flood" result="color1" />
<feMerge result="effect1_noise_48_57">
<feMergeNode in="shape" />
<feMergeNode in="color1" />
</feMerge>
<feGaussianBlur stdDeviation="0.9" result="effect2_foregroundBlur_48_57"/>
</filter>
</defs>
</svg>
